<svg xmlns="http://www.w3.org/2000/svg" viewBox="0 0 3435.58 632.867">
  <rect id="ground" x="0" y="0" width="1024" height="632.867" fill="#000000"/>
  <rect id="r1" x="0" y="0" width="632.867" height="391.133" fill="#ef8b57" fill-opacity="0.3098"/>
  <rect id="r2" x="632.867" y="0" width="391.133" height="391.133" fill="#dec1b1"/>
  <rect id="r3" x="632.867" y="391.133" width="391.133" height="241.734" fill="#ef8b57" fill-opacity="0.3098"/>
  <rect id="r4" x="0" y="391.133" width="632.867" height="241.734" fill="#705a4d"/>
  <circle id="circle" cx="632.867" cy="316.433" r="316.433" fill="#ffffff" fill-opacity="0.2431"/>
  <path d="M1309.4755981585377 37.807627280617Q1401.4472827603463 37.807627280617 1448.6659824725753 71.90293709082243Q1495.884682184804 105.99824690102787 1495.884682184804 180.95613803786415Q1495.884682184804 217.339076578181 1484.7752202464458 244.7495862905897Q1473.6657583080873 272.1600960029984 1452.3235196576202 289.59818585407845Q1430.981281007153 307.03627570515846 1399.4747911663817 313.61151523222225V317.25530718082916Q1434.1318497270759 323.94010727862593 1459.241186133321 340.72063304492235Q1484.350522539566 357.50115881121883 1497.651797873741 386.03496536421903Q1510.9530732079158 414.5687719172193 1510.9530732079158 456.8695865602024Q1510.9530732079158 508.896209450172 1490.4875197836982 546.5257506382515Q1470.0219663594803 584.1552918263309 1431.3922334775943 604.4015234486967Q1392.7625005957086 624.6477550710626 1337.8590097522626 624.6477550710626H1163.2306969855763V37.807627280617ZM1315.886697489888 288.5981948206579Q1374.7355728420355 288.5981948206579 1398.721612407689 263.4205335529942Q1422.7076519733428 238.24287228533046 1422.7076519733428 188.24372193507799Q1422.7076519733428 142.54572695783008 1395.1188555080107 120.65568545369825Q1367.5300590426784 98.76564394956642 1310.4345541430298 98.76564394956642H1234.4077451301966V288.5981948206579ZM1234.4077451301966 348.3781343636494V563.5801778313803H1327.6124878037156Q1385.6669486878563 563.5801778313803 1410.954371186639 534.566893286134Q1436.2417936854217 505.5536087408877 1436.2417936854217 452.5134502414454Q1436.2417936854217 419.4181314646604 1424.0775604282765 396.17192674203307Q1411.9133271711312 372.9257220194057 1386.32451277264 360.65192819152753Q1360.7356983741488 348.3781343636494 1320.4619549501108 348.3781343636494ZM1725.4965492889332 175.77809677822415Q1795.79711286769 175.77809677822415 1827.4406537520706 213.44867301523198Q1859.0841946364512 251.1192492522398 1859.0841946364512 326.0496499161998V624.6477550710626H1807.4137439315566L1795.7700237155857 563.1144450755723H1793.4138694636697Q1778.701650625633 586.4839556053706 1761.5922424867517 602.0453691967807Q1744.4828343478705 617.6067827881909 1722.7844235123284 625.2367936340416Q1701.0860126767861 632.8668044798924 1672.0177471857874 632.8668044798924Q1635.8264393140603 632.8668044798924 1609.5390257818572 616.332890327938Q1583.2516122496538 599.7989761759836 1569.594164730404 570.15561801883Q1555.936717211154 540.5122598616764 1555.936717211154 501.7181861236911Q1555.936717211154 435.9657908530529 1599.7992716380463 399.9800595467394Q1643.6618260649386 363.99432824042594 1729.9076665534426 360.70670847689405L1790.729033499555 358.24099365424513V330.54283727856597Q1790.729033499555 277.8038700184463 1772.482583283644 255.037143288065Q1754.2361330677331 232.27041655768375 1717.6611625380547 232.27041655768375Q1692.455810137129 232.27041655768375 1667.277948209079 240.44843091758514Q1642.1000862810295 248.62644527748654 1616.840154255123 262.2426570874221L1595.1144536070906 210.32559476818545Q1622.483928270571 194.2436681356009 1655.8808396074505 185.01088245691253Q1689.27775094433 175.77809677822415 1725.4965492889332 175.77809677822415ZM1740.3458191705793 409.91144435913975Q1679.1132990936396 412.7333313668637 1653.0587519393405 435.5138033336831Q1627.0042047850413 458.2942753005025 1627.0042047850413 501.1428927971502Q1627.0042047850413 539.9915461601161 1644.7163967233396 558.4158818081785Q1662.428588661638 576.8402174562408 1692.1817080499106 576.8402174562408Q1735.9621923789462 576.8402174562408 1763.400393224617 544.1558511498973Q1790.8385940702879 511.47148484355387 1790.8385940702879 449.69156323372147V407.44572953649083ZM2022.0117996375545 316.9816064143828Q2022.0117996375545 335.7208785382059 2020.77894222623 357.3232733790673Q2019.5460848149055 378.9256682199287 2018.2584471182147 397.80199138736094H2021.5460668817466Q2026.4774965270444 389.82955359287325 2033.3130929048884 379.5967768807644Q2040.1486892827324 369.3640001686556 2047.162371753114 358.9531373640092Q2054.1760542234956 348.54227455936285 2060.1760004240186 340.788957906341L2176.9693747688016 183.64097400197892H2254.173859586821L2116.339237170507 361.61108483640567L2263.7080371652182 624.6477550710626H2185.4350357919734L2069.3536044965686 412.185528513199L2022.0117996375545 461.8010162055002V624.6477550710626H1953.3004663155832V0.0H2022.0117996375545ZM2628.469690721546 403.5553259735418Q2628.469690721546 456.76002598946945 2617.113617168846 498.8552640670388Q2605.7575436161455 540.9505021446081 2583.935826973432 571.0048127722032Q2562.114110330719 601.0591233997984 2529.484323649356 616.9629639398454Q2496.854536967993 632.8668044798924 2454.663282895743 632.8668044798924Q2414.828183075409 632.8668044798924 2383.1983874274665 616.9629639398454Q2351.568591779524 601.0591233997984 2329.3359226663692 571.2376791501072Q2307.1032535532145 541.416234900416 2295.3910078154395 499.08813044494275Q2283.678762077664 456.76002598946945 2283.678762077664 403.5553259735418Q2283.678762077664 330.40578623495685 2303.44571636817 279.62576599274973Q2323.2126706586755 228.84574575054268 2361.787623255195 202.13383517184593Q2400.362575851714 175.42192459314919 2456.663264962584 175.42192459314919Q2509.210601554114 175.42192459314919 2547.840334436 201.66810241603798Q2586.470067317886 227.91428023892678 2607.4698790197162 278.46143410322986Q2628.469690721546 329.00858796753295 2628.469690721546 403.5553259735418ZM2354.746249651551 403.5553259735418Q2354.746249651551 457.6640010282091 2365.5132846412725 495.8825807792676Q2376.2803196309937 534.1011605303261 2398.7596003584904 553.9501849186886Q2421.2388810859875 573.799209307051 2456.307092777509 573.799209307051Q2491.3753044690307 573.799209307051 2513.8545851965273 554.1830512965926Q2536.3338659240244 534.566893286134 2547.1009009137456 496.34831353507553Q2557.867935903467 458.12973378401705 2557.867935903467 403.5553259735418Q2557.867935903467 348.6247459779915 2546.922814821208 311.1732908824496Q2535.9776937389493 273.7218357869076 2513.67649910399 254.2837638689866Q2491.3753044690307 234.8456919510656 2455.950920592434 234.8456919510656Q2402.5266981142686 234.8456919510656 2378.6364738829097 278.06422686922645Q2354.746249651551 321.28276178738736 2354.746249651551 403.5553259735418ZM2771.945277907905 166.95586224920538Q2771.945277907905 186.5174406346834 2770.9452868744847 205.87344245474767Q2769.945295841064 225.22944427481195 2768.767218715106 241.9962248046703H2772.411010663713Q2790.8490915482134 210.7913275239934 2818.602228869645 193.51757852901278Q2846.3553661910764 176.24382953403216 2886.0263258156974 176.24382953403216Q2957.504966520412 176.24382953403216 2997.6826939497687 233.831955681207Q3037.860421379126 291.42008182838185 3037.860421379126 403.91149815861684Q3037.860421379126 478.1295544524269 3019.68249668502 529.3205271650754Q3001.5045719909135 580.511499877724 2967.8610490396923 606.6891521788082Q2934.2175260884705 632.8668044798924 2887.4235240831213 632.8668044798924Q2847.286831702693 632.8668044798924 2819.3008280033573 615.8259218628157Q2791.3148243040214 598.7850392457391 2772.411010663713 568.7582190910202H2767.5891415891483L2756.05498194391 624.6477550710626H2702.8777724008587V0.0H2771.945277907905ZM2872.3005534350286 235.31142470687354Q2833.3694286534346 235.31142470687354 2811.369625918184 255.07817833699337Q2789.369823182933 274.8449319671132 2780.6575505454193 311.65256821430967Q2771.945277907905 348.4602044615061 2771.945277907905 399.58285231273607V409.8564634133873Q2771.945277907905 491.69078531661 2795.1641928180425 532.9778636897345Q2818.3831077281793 574.264942062859 2873.478630560987 574.264942062859Q2920.5467346535543 574.264942062859 2943.6698342293967 531.635445707677Q2966.792933805239 489.00594935249524 2966.792933805239 403.08959321773386Q2966.792933805239 319.61146143274516 2943.9027006073006 277.4614430698093Q2921.012467409362 235.31142470687354 2872.3005534350286 235.31142470687354ZM3435.58034266863 403.5553259735418Q3435.58034266863 456.76002598946945 3424.2242691159295 498.8552640670388Q3412.868195563229 540.9505021446081 3391.046478920516 571.0048127722032Q3369.2247622778027 601.0591233997984 3336.59497559644 616.9629639398454Q3303.965188915077 632.8668044798924 3261.7739348428267 632.8668044798924Q3221.9388350224926 632.8668044798924 3190.30903937455 616.9629639398454Q3158.6792437266076 601.0591233997984 3136.446574613453 571.2376791501072Q3114.213905500298 541.416234900416 3102.5016597625226 499.08813044494275Q3090.789414024747 456.76002598946945 3090.789414024747 403.5553259735418Q3090.789414024747 330.40578623495685 3110.556368315253 279.62576599274973Q3130.323322605759 228.84574575054268 3168.8982752022785 202.13383517184593Q3207.473227798798 175.42192459314919 3263.7739169096676 175.42192459314919Q3316.3212535011976 175.42192459314919 3354.9509863830835 201.66810241603798Q3393.5807192649695 227.91428023892678 3414.5805309667994 278.46143410322986Q3435.58034266863 329.00858796753295 3435.58034266863 403.5553259735418ZM3161.8569015986345 403.5553259735418Q3161.8569015986345 457.6640010282091 3172.6239365883557 495.8825807792676Q3183.3909715780774 534.1011605303261 3205.8702523055745 553.9501849186886Q3228.349533033071 573.799209307051 3263.4177447245925 573.799209307051Q3298.4859564161143 573.799209307051 3320.9652371436114 554.1830512965926Q3343.444517871108 534.566893286134 3354.211552860829 496.34831353507553Q3364.978587850551 458.12973378401705 3364.978587850551 403.5553259735418Q3364.978587850551 348.6247459779915 3354.033466768292 311.1732908824496Q3343.088345686033 273.7218357869076 3320.7871510510736 254.2837638689866Q3298.4859564161143 234.8456919510656 3263.061572539518 234.8456919510656Q3209.637350061352 234.8456919510656 3185.7471258299934 278.06422686922645Q3161.8569015986345 321.28276178738736 3161.8569015986345 403.5553259735418Z" fill="#705a4d"/>
</svg>
