<svg xmlns="http://www.w3.org/2000/svg" viewBox="0 0 3388.64 632.867">
  <rect id="ground" x="0" y="0" width="1024" height="632.867" fill="#000000"/>
  <rect id="r1" x="0" y="0" width="632.867" height="391.133" fill="#ef8b57" fill-opacity="0.3098"/>
  <rect id="r2" x="632.867" y="0" width="391.133" height="391.133" fill="#dec1b1"/>
  <rect id="r3" x="632.867" y="391.133" width="391.133" height="241.734" fill="#ef8b57" fill-opacity="0.3098"/>
  <rect id="r4" x="0" y="391.133" width="632.867" height="241.734" fill="#705a4d"/>
  <circle id="circle" cx="632.867" cy="316.433" r="316.433" fill="#ffffff" fill-opacity="0.2431"/>
  <path d="M1305.9657205303865 44.49464587964087Q1395.7300847017518 44.49464587964087 1441.8155356208872 77.77166825440136Q1487.9009865400224 111.04869062916185 1487.9009865400224 184.20759237871408Q1487.9009865400224 219.71734039406334 1477.0581516881848 246.4699978733742Q1466.215316836347 273.2226553526851 1445.385291913491 290.2422310473392Q1424.5552669906351 307.2618067419933 1393.8049329060423 313.6792405204076V317.235581462248Q1427.6302220612797 323.7599463576976 1452.136934393775 340.1377395056029Q1476.6436467262702 356.5155326535083 1489.625691452425 384.3645278492365Q1502.6077361785797 412.2135230449647 1502.6077361785797 453.49911813651613Q1502.6077361785797 504.27710207712653 1482.6333560365433 541.0035342766921Q1462.6589758945067 577.7299664762576 1424.956356601786 597.4902885396866Q1387.2537373090654 617.2506106031158 1333.6679302458622 617.2506106031158H1163.2306969855763V44.49464587964087ZM1312.2229534777846 289.2662397987208Q1369.6594558214806 289.2662397987208 1393.0698304375585 264.692842401481Q1416.4802050536364 240.1194450042412 1416.4802050536364 191.32027426239478Q1416.4802050536364 146.71903116460084 1389.5535397034723 125.35435065656819Q1362.626874353308 103.98967014853554 1306.901661571251 103.98967014853554H1232.6994959747258V289.2662397987208ZM1232.6994959747258 347.6114607926805V557.6486552171857H1323.6673248240802Q1380.3284786470017 557.6486552171857 1405.0090030058136 529.3316895010254Q1429.6895273646253 501.01472378486505 1429.6895273646253 449.24752908940934Q1429.6895273646253 416.94649796326723 1417.8172357056515 394.25820215398295Q1405.9449440466778 371.56990634469867 1380.9702611937505 359.59068356868954Q1355.995578340823 347.6114607926805 1316.6884047589622 347.6114607926805ZM1712.0021688336528 179.1538241093055Q1780.6155188865193 179.1538241093055 1811.4996147896748 215.9203065166251Q1842.3837106928302 252.68678892394468 1842.3837106928302 325.81885997196974V617.2506106031158H1791.953350804853L1780.5890798740654 557.1941000475172H1778.2894733241956Q1763.9303477382714 580.0027423246004 1747.2315653947235 595.1906819898167Q1730.5327830511753 610.3786216550329 1709.3551340756862 617.8255122405833Q1688.177485100197 625.2724028261337 1659.8068579809824 625.2724028261337Q1624.4841414981765 625.2724028261337 1598.8276258907463 609.1353026138262Q1573.171110283316 592.9982024015187 1559.8414415045281 564.0662848401367Q1546.5117727257402 535.1343672787548 1546.5117727257402 497.2713513104811Q1546.5117727257402 433.0970135263383 1589.3216258463872 397.97493977137634Q1632.131478967034 362.8528660164144 1716.307419283814 359.64414912720724L1775.6690734232193 357.2376114603019V330.20421083763904Q1775.6690734232193 278.73097879176225 1757.8605380124905 256.51065350291015Q1740.0520026017614 234.29032821405798 1704.3548313647952 234.29032821405798Q1679.7544074214916 234.29032821405798 1655.180814179715 242.27207022932177Q1630.6072209379386 250.25381224458556 1605.9535272806538 263.54323497108265L1584.7492434481742 212.87218214750766Q1611.461850719731 197.17622175410514 1644.0572361845254 188.16502293170532Q1676.6526216493198 179.1538241093055 1712.0021688336528 179.1538241093055ZM1726.4950562381391 407.667971348279Q1666.732116643046 410.42213306781764 1641.30287862045 432.65587370743333Q1615.873640597854 454.889614347049 1615.873640597854 496.70986502377724Q1615.873640597854 534.6261507060318 1633.1607399296333 552.6083022985408Q1650.4478392614126 570.5904538910497 1679.4868837843665 570.5904538910497Q1722.2166364895052 570.5904538910497 1748.99632051488 538.6905123760585Q1775.7760045402547 506.79057086106724 1775.7760045402547 446.4933673698708V405.26143368137366ZM2001.401053173907 316.96844951419627Q2001.401053173907 335.2579791070476 2000.1977843404543 356.3419164717283Q1998.9945155070016 377.42585383640903 1997.7377811150313 395.84914524782295H2000.9464980042385Q2005.7595733380492 388.06804596040297 2012.431115402825 378.08085588938474Q2019.1026574676007 368.0936658183665 2025.948011558693 357.93266372103164Q2032.7933656497853 347.7716616236968 2038.6493131414957 340.2044245703475L2152.6396465020043 186.82799227969014H2227.991223684391L2093.464632206069 360.52682045409057L2237.2965810009064 617.2506106031158H2160.90213166062L2047.6066547163045 409.88747748264086L2001.401053173907 458.31219347032686V617.2506106031158H1934.338791851663V7.594401653758723H2001.401053173907ZM2593.3039548718834 401.4643998039354Q2593.3039548718834 453.39218701948084 2582.2204270844477 494.4771393831885Q2571.136899297012 535.5620917468962 2549.838903853724 564.8950989194291Q2528.540908410436 594.2281060919619 2496.6942366094254 609.7502544590477Q2464.8475648084154 625.2724028261337 2423.6689008338994 625.2724028261337Q2384.789843409253 625.2724028261337 2353.9191628568615 609.7502544590477Q2323.0484823044694 594.2281060919619 2301.3493972500305 565.1223765042632Q2279.6503121955916 536.0166469165647 2268.219160355523 494.70441696802277Q2256.788008515454 453.39218701948084 2256.788008515454 401.4643998039354Q2256.788008515454 330.07044901907653 2276.0805559029877 280.5091492626824Q2295.373103290521 230.94784950628832 2333.0222570247242 204.8770247814803Q2370.671410758927 178.80620005667225 2425.620883331136 178.80620005667225Q2476.9070838444695 178.80620005667225 2514.60970313719 204.42246961181172Q2552.3123224299106 230.0387391669512 2572.808138650897 279.372761338511Q2593.3039548718834 328.7067835100708 2593.3039548718834 401.4643998039354ZM2326.149876387568 401.4643998039354Q2326.149876387568 454.27446665729076 2336.658502537536 491.5758004943238Q2347.167128687504 528.8771343313568 2369.106906677541 548.2497821343986Q2391.0466846675777 567.6224299374404 2425.273259278503 567.6224299374404Q2459.499833889428 567.6224299374404 2481.439611879465 548.4770597192329Q2503.3793898695017 529.3316895010254 2513.8880160194694 492.03035566399234Q2524.3966421694377 454.7290218269593 2524.3966421694377 401.4643998039354Q2524.3966421694377 347.8521537282783 2513.714203993153 311.29953355502937Q2503.0317658168683 274.7469133817805 2481.265799853148 255.77535518988958Q2459.499833889428 236.8037969979987 2424.9256352258694 236.8037969979987Q2372.78359408718 236.8037969979987 2349.466735237374 278.9850870781237Q2326.149876387568 321.16637715824874 2326.149876387568 401.4643998039354ZM2733.336127965769 170.5433232089831Q2733.336127965769 189.63542371320966 2732.3601367171505 208.5268814895924Q2731.384145468532 227.41833926597513 2730.234342193597 243.78271706311688H2733.7906831354376Q2751.78625007871 213.32673731717625 2778.873312104427 196.46755829807515Q2805.9603741301444 179.60837927897404 2844.6792307237743 179.60837927897404Q2914.4423840515756 179.60837927897404 2953.655846022628 235.81439039861672Q2992.8693079936806 292.0204015182594 2992.8693079936806 401.81202385656866Q2992.8693079936806 474.2488467993272 2975.1276534922326 524.2112361668721Q2957.385998990785 574.1736255344172 2924.549920590393 599.7230141802754Q2891.713842190001 625.2724028261337 2846.0428962327796 625.2724028261337Q2806.8694844694814 625.2724028261337 2779.55514485893 608.6405013918668Q2752.2408052483784 592.0085999576 2733.7906831354376 562.7024234865944H2729.084538918662L2717.82719910491 617.2506106031158H2665.926242590892V7.594401653758723H2733.336127965769ZM2831.2828768802415 237.25835216766728Q2793.2860990934055 237.25835216766728 2771.8142916238007 256.5507037106642Q2750.342484154196 275.84305525366113 2741.8393060599824 311.76730823092487Q2733.336127965769 347.6915612081886 2733.336127965769 397.587265510989V407.6143099452247Q2733.336127965769 487.48460812277 2755.9977889180627 527.7807966149395Q2778.6594498703566 568.076985107109 2832.4326801551765 568.076985107109Q2878.3711497495224 568.076985107109 2900.9392949355442 526.4705966644515Q2923.5074401215666 484.864208221794 2923.5074401215666 401.00984463426687Q2923.5074401215666 319.53518801211794 2901.166572520379 278.3967700898926Q2878.825704919191 237.25835216766728 2831.2828768802415 237.25835216766728ZM3381.043951172237 401.4643998039354Q3381.043951172237 453.39218701948084 3369.9604233848013 494.4771393831885Q3358.8768955973655 535.5620917468962 3337.5789001540775 564.8950989194291Q3316.2809047107894 594.2281060919619 3284.434232909779 609.7502544590477Q3252.587561108769 625.2724028261337 3211.408897134253 625.2724028261337Q3172.5298397096067 625.2724028261337 3141.659159157215 609.7502544590477Q3110.788478604823 594.2281060919619 3089.089393550384 565.1223765042632Q3067.390308495945 536.0166469165647 3055.9591566558765 494.70441696802277Q3044.5280048158074 453.39218701948084 3044.5280048158074 401.4643998039354Q3044.5280048158074 330.07044901907653 3063.8205522033413 280.5091492626824Q3083.1130995908748 230.94784950628832 3120.762253325078 204.8770247814803Q3158.4114070592805 178.80620005667225 3213.3608796314898 178.80620005667225Q3264.647080144823 178.80620005667225 3302.3496994375437 204.42246961181172Q3340.0523187302642 230.0387391669512 3360.5481349512506 279.372761338511Q3381.043951172237 328.7067835100708 3381.043951172237 401.4643998039354ZM3113.8898726879215 401.4643998039354Q3113.8898726879215 454.27446665729076 3124.3984988378897 491.5758004943238Q3134.9071249878575 528.8771343313568 3156.8469029778944 548.2497821343986Q3178.7866809679313 567.6224299374404 3213.0132555788564 567.6224299374404Q3247.2398301897815 567.6224299374404 3269.1796081798184 548.4770597192329Q3291.1193861698553 529.3316895010254 3301.628012319823 492.03035566399234Q3312.1366384697913 454.7290218269593 3312.1366384697913 401.4643998039354Q3312.1366384697913 347.8521537282783 3301.454200293507 311.29953355502937Q3290.771762117222 274.7469133817805 3269.0057961535017 255.77535518988958Q3247.2398301897815 236.8037969979987 3212.665631526223 236.8037969979987Q3160.5235903875337 236.8037969979987 3137.2067315377276 278.9850870781237Q3113.8898726879215 321.16637715824874 3113.8898726879215 401.4643998039354Z" fill="#ffffff" stroke="#ffffff" stroke-width="15.1888" stroke-linejoin="round"/>
  <path d="M1305.9657205303865 44.49464587964087Q1395.7300847017518 44.49464587964087 1441.8155356208872 77.77166825440136Q1487.9009865400224 111.04869062916185 1487.9009865400224 184.20759237871408Q1487.9009865400224 219.71734039406334 1477.0581516881848 246.4699978733742Q1466.215316836347 273.2226553526851 1445.385291913491 290.2422310473392Q1424.5552669906351 307.2618067419933 1393.8049329060423 313.6792405204076V317.235581462248Q1427.6302220612797 323.7599463576976 1452.136934393775 340.1377395056029Q1476.6436467262702 356.5155326535083 1489.625691452425 384.3645278492365Q1502.6077361785797 412.2135230449647 1502.6077361785797 453.49911813651613Q1502.6077361785797 504.27710207712653 1482.6333560365433 541.0035342766921Q1462.6589758945067 577.7299664762576 1424.956356601786 597.4902885396866Q1387.2537373090654 617.2506106031158 1333.6679302458622 617.2506106031158H1163.2306969855763V44.49464587964087ZM1312.2229534777846 289.2662397987208Q1369.6594558214806 289.2662397987208 1393.0698304375585 264.692842401481Q1416.4802050536364 240.1194450042412 1416.4802050536364 191.32027426239478Q1416.4802050536364 146.71903116460084 1389.5535397034723 125.35435065656819Q1362.626874353308 103.98967014853554 1306.901661571251 103.98967014853554H1232.6994959747258V289.2662397987208ZM1232.6994959747258 347.6114607926805V557.6486552171857H1323.6673248240802Q1380.3284786470017 557.6486552171857 1405.0090030058136 529.3316895010254Q1429.6895273646253 501.01472378486505 1429.6895273646253 449.24752908940934Q1429.6895273646253 416.94649796326723 1417.8172357056515 394.25820215398295Q1405.9449440466778 371.56990634469867 1380.9702611937505 359.59068356868954Q1355.995578340823 347.6114607926805 1316.6884047589622 347.6114607926805ZM1712.0021688336528 179.1538241093055Q1780.6155188865193 179.1538241093055 1811.4996147896748 215.9203065166251Q1842.3837106928302 252.68678892394468 1842.3837106928302 325.81885997196974V617.2506106031158H1791.953350804853L1780.5890798740654 557.1941000475172H1778.2894733241956Q1763.9303477382714 580.0027423246004 1747.2315653947235 595.1906819898167Q1730.5327830511753 610.3786216550329 1709.3551340756862 617.8255122405833Q1688.177485100197 625.2724028261337 1659.8068579809824 625.2724028261337Q1624.4841414981765 625.2724028261337 1598.8276258907463 609.1353026138262Q1573.171110283316 592.9982024015187 1559.8414415045281 564.0662848401367Q1546.5117727257402 535.1343672787548 1546.5117727257402 497.2713513104811Q1546.5117727257402 433.0970135263383 1589.3216258463872 397.97493977137634Q1632.131478967034 362.8528660164144 1716.307419283814 359.64414912720724L1775.6690734232193 357.2376114603019V330.20421083763904Q1775.6690734232193 278.73097879176225 1757.8605380124905 256.51065350291015Q1740.0520026017614 234.29032821405798 1704.3548313647952 234.29032821405798Q1679.7544074214916 234.29032821405798 1655.180814179715 242.27207022932177Q1630.6072209379386 250.25381224458556 1605.9535272806538 263.54323497108265L1584.7492434481742 212.87218214750766Q1611.461850719731 197.17622175410514 1644.0572361845254 188.16502293170532Q1676.6526216493198 179.1538241093055 1712.0021688336528 179.1538241093055ZM1726.4950562381391 407.667971348279Q1666.732116643046 410.42213306781764 1641.30287862045 432.65587370743333Q1615.873640597854 454.889614347049 1615.873640597854 496.70986502377724Q1615.873640597854 534.6261507060318 1633.1607399296333 552.6083022985408Q1650.4478392614126 570.5904538910497 1679.4868837843665 570.5904538910497Q1722.2166364895052 570.5904538910497 1748.99632051488 538.6905123760585Q1775.7760045402547 506.79057086106724 1775.7760045402547 446.4933673698708V405.26143368137366ZM2001.401053173907 316.96844951419627Q2001.401053173907 335.2579791070476 2000.1977843404543 356.3419164717283Q1998.9945155070016 377.42585383640903 1997.7377811150313 395.84914524782295H2000.9464980042385Q2005.7595733380492 388.06804596040297 2012.431115402825 378.08085588938474Q2019.1026574676007 368.0936658183665 2025.948011558693 357.93266372103164Q2032.7933656497853 347.7716616236968 2038.6493131414957 340.2044245703475L2152.6396465020043 186.82799227969014H2227.991223684391L2093.464632206069 360.52682045409057L2237.2965810009064 617.2506106031158H2160.90213166062L2047.6066547163045 409.88747748264086L2001.401053173907 458.31219347032686V617.2506106031158H1934.338791851663V7.594401653758723H2001.401053173907ZM2593.3039548718834 401.4643998039354Q2593.3039548718834 453.39218701948084 2582.2204270844477 494.4771393831885Q2571.136899297012 535.5620917468962 2549.838903853724 564.8950989194291Q2528.540908410436 594.2281060919619 2496.6942366094254 609.7502544590477Q2464.8475648084154 625.2724028261337 2423.6689008338994 625.2724028261337Q2384.789843409253 625.2724028261337 2353.9191628568615 609.7502544590477Q2323.0484823044694 594.2281060919619 2301.3493972500305 565.1223765042632Q2279.6503121955916 536.0166469165647 2268.219160355523 494.70441696802277Q2256.788008515454 453.39218701948084 2256.788008515454 401.4643998039354Q2256.788008515454 330.07044901907653 2276.0805559029877 280.5091492626824Q2295.373103290521 230.94784950628832 2333.0222570247242 204.8770247814803Q2370.671410758927 178.80620005667225 2425.620883331136 178.80620005667225Q2476.9070838444695 178.80620005667225 2514.60970313719 204.42246961181172Q2552.3123224299106 230.0387391669512 2572.808138650897 279.372761338511Q2593.3039548718834 328.7067835100708 2593.3039548718834 401.4643998039354ZM2326.149876387568 401.4643998039354Q2326.149876387568 454.27446665729076 2336.658502537536 491.5758004943238Q2347.167128687504 528.8771343313568 2369.106906677541 548.2497821343986Q2391.0466846675777 567.6224299374404 2425.273259278503 567.6224299374404Q2459.499833889428 567.6224299374404 2481.439611879465 548.4770597192329Q2503.3793898695017 529.3316895010254 2513.8880160194694 492.03035566399234Q2524.3966421694377 454.7290218269593 2524.3966421694377 401.4643998039354Q2524.3966421694377 347.8521537282783 2513.714203993153 311.29953355502937Q2503.0317658168683 274.7469133817805 2481.265799853148 255.77535518988958Q2459.499833889428 236.8037969979987 2424.9256352258694 236.8037969979987Q2372.78359408718 236.8037969979987 2349.466735237374 278.9850870781237Q2326.149876387568 321.16637715824874 2326.149876387568 401.4643998039354ZM2733.336127965769 170.5433232089831Q2733.336127965769 189.63542371320966 2732.3601367171505 208.5268814895924Q2731.384145468532 227.41833926597513 2730.234342193597 243.78271706311688H2733.7906831354376Q2751.78625007871 213.32673731717625 2778.873312104427 196.46755829807515Q2805.9603741301444 179.60837927897404 2844.6792307237743 179.60837927897404Q2914.4423840515756 179.60837927897404 2953.655846022628 235.81439039861672Q2992.8693079936806 292.0204015182594 2992.8693079936806 401.81202385656866Q2992.8693079936806 474.2488467993272 2975.1276534922326 524.2112361668721Q2957.385998990785 574.1736255344172 2924.549920590393 599.7230141802754Q2891.713842190001 625.2724028261337 2846.0428962327796 625.2724028261337Q2806.8694844694814 625.2724028261337 2779.55514485893 608.6405013918668Q2752.2408052483784 592.0085999576 2733.7906831354376 562.7024234865944H2729.084538918662L2717.82719910491 617.2506106031158H2665.926242590892V7.594401653758723H2733.336127965769ZM2831.2828768802415 237.25835216766728Q2793.2860990934055 237.25835216766728 2771.8142916238007 256.5507037106642Q2750.342484154196 275.84305525366113 2741.8393060599824 311.76730823092487Q2733.336127965769 347.6915612081886 2733.336127965769 397.587265510989V407.6143099452247Q2733.336127965769 487.48460812277 2755.9977889180627 527.7807966149395Q2778.6594498703566 568.076985107109 2832.4326801551765 568.076985107109Q2878.3711497495224 568.076985107109 2900.9392949355442 526.4705966644515Q2923.5074401215666 484.864208221794 2923.5074401215666 401.00984463426687Q2923.5074401215666 319.53518801211794 2901.166572520379 278.3967700898926Q2878.825704919191 237.25835216766728 2831.2828768802415 237.25835216766728ZM3381.043951172237 401.4643998039354Q3381.043951172237 453.39218701948084 3369.9604233848013 494.4771393831885Q3358.8768955973655 535.5620917468962 3337.5789001540775 564.8950989194291Q3316.2809047107894 594.2281060919619 3284.434232909779 609.7502544590477Q3252.587561108769 625.2724028261337 3211.408897134253 625.2724028261337Q3172.5298397096067 625.2724028261337 3141.659159157215 609.7502544590477Q3110.788478604823 594.2281060919619 3089.089393550384 565.1223765042632Q3067.390308495945 536.0166469165647 3055.9591566558765 494.70441696802277Q3044.5280048158074 453.39218701948084 3044.5280048158074 401.4643998039354Q3044.5280048158074 330.07044901907653 3063.8205522033413 280.5091492626824Q3083.1130995908748 230.94784950628832 3120.762253325078 204.8770247814803Q3158.4114070592805 178.80620005667225 3213.3608796314898 178.80620005667225Q3264.647080144823 178.80620005667225 3302.3496994375437 204.42246961181172Q3340.0523187302642 230.0387391669512 3360.5481349512506 279.372761338511Q3381.043951172237 328.7067835100708 3381.043951172237 401.4643998039354ZM3113.8898726879215 401.4643998039354Q3113.8898726879215 454.27446665729076 3124.3984988378897 491.5758004943238Q3134.9071249878575 528.8771343313568 3156.8469029778944 548.2497821343986Q3178.7866809679313 567.6224299374404 3213.0132555788564 567.6224299374404Q3247.2398301897815 567.6224299374404 3269.1796081798184 548.4770597192329Q3291.1193861698553 529.3316895010254 3301.628012319823 492.03035566399234Q3312.1366384697913 454.7290218269593 3312.1366384697913 401.4643998039354Q3312.1366384697913 347.8521537282783 3301.454200293507 311.29953355502937Q3290.771762117222 274.7469133817805 3269.0057961535017 255.77535518988958Q3247.2398301897815 236.8037969979987 3212.665631526223 236.8037969979987Q3160.5235903875337 236.8037969979987 3137.2067315377276 278.9850870781237Q3113.8898726879215 321.16637715824874 3113.8898726879215 401.4643998039354Z" fill="#705a4d"/>
</svg>
